HIERARCHY
ROOT Hips
{
  OFFSET 0.0273292 -0.436096 0.279869
  CHANNELS 6 Xposition Yposition Zposition Zrotation Xrotation Yrotation
  JOINT LHipJoint
  {
    OFFSET 0 0 0
    CHANNELS 6 Xposition Yposition Zposition Zrotation Xrotation Yrotation
    JOINT LeftUpLeg
    {
      OFFSET 1.36306 -1.79463 0
      CHANNELS 6 Xposition Yposition Zposition Zrotation Xrotation Yrotation
      JOINT LeftLeg
      {
        OFFSET 2.44807 -6.72613 0.000295034
        CHANNELS 6 Xposition Yposition Zposition Zrotation Xrotation Yrotation
        JOINT LeftFoot
        {
          OFFSET 2.5622 -7.03959 3.59965e-05
          CHANNELS 6 Xposition Yposition Zposition Zrotation Xrotation Yrotation
          JOINT LeftToeBase
          {
            OFFSET 0.15764 -0.43311 2.32255
            CHANNELS 6 Xposition Yposition Zposition Zrotation Xrotation Yrotation
            End Site
            {
              OFFSET 0 0 0
            }
          }
        }
      }
    }
  }
  JOINT RHipJoint
  {
    OFFSET 0 0 0
    CHANNELS 6 Xposition Yposition Zposition Zrotation Xrotation Yrotation
    JOINT RightUpLeg
    {
      OFFSET -1.30552 -1.79463 0
      CHANNELS 6 Xposition Yposition Zposition Zrotation Xrotation Yrotation
      JOINT RightLeg
      {
        OFFSET -2.54234 -6.98562 -0.000396375
        CHANNELS 6 Xposition Yposition Zposition Zrotation Xrotation Yrotation
        JOINT RightFoot
        {
          OFFSET -2.56826 -7.05623 -4.47982e-05
          CHANNELS 6 Xposition Yposition Zposition Zrotation Xrotation Yrotation
          JOINT RightToeBase
          {
            OFFSET -0.16473 -0.45259 2.36315
            CHANNELS 6 Xposition Yposition Zposition Zrotation Xrotation Yrotation
            End Site
            {
              OFFSET 0 0 0
            }
          }
        }
      }
    }
  }
  JOINT LowerBack
  {
    OFFSET 0 0 0
    CHANNELS 6 Xposition Yposition Zposition Zrotation Xrotation Yrotation
    JOINT Spine
    {
      OFFSET 0.0282699 2.03559 0
      CHANNELS 6 Xposition Yposition Zposition Zrotation Xrotation Yrotation
      JOINT Spine1
      {
        OFFSET 0.05672 2.04885 -0.04275
        CHANNELS 6 Xposition Yposition Zposition Zrotation Xrotation Yrotation
        JOINT Neck
        {
          OFFSET 0 0 0
          CHANNELS 6 Xposition Yposition Zposition Zrotation Xrotation Yrotation
          JOINT Neck1
          {
            OFFSET -0.05417 1.74624 0.17202
            CHANNELS 6 Xposition Yposition Zposition Zrotation Xrotation Yrotation
            JOINT Head
            {
              OFFSET 0.10407 1.76136 -0.12397
              CHANNELS 6 Xposition Yposition Zposition Zrotation Xrotation Yrotation
              End Site
              {
                OFFSET 0 0 0
              }
            }
          }
        }
        JOINT LeftShoulder
        {
          OFFSET 0 0 0
          CHANNELS 6 Xposition Yposition Zposition Zrotation Xrotation Yrotation
          JOINT LeftArm
          {
            OFFSET 3.36241 1.20089 -0.311211
            CHANNELS 6 Xposition Yposition Zposition Zrotation Xrotation Yrotation
            JOINT LeftForeArm
            {
              OFFSET 4.983 0.000197398 0.000166057
              CHANNELS 6 Xposition Yposition Zposition Zrotation Xrotation Yrotation
              JOINT LeftHand
              {
                OFFSET 3.48356 0 1.87849e-05
                CHANNELS 6 Xposition Yposition Zposition Zrotation Xrotation Yrotation
                JOINT LeftFingerBase
                {
                  OFFSET 0 0 0
                  CHANNELS 6 Xposition Yposition Zposition Zrotation Xrotation Yrotation
                  JOINT LeftHandIndex1
                  {
                    OFFSET 0.71526 0 0
                    CHANNELS 6 Xposition Yposition Zposition Zrotation Xrotation Yrotation
                    End Site
                    {
                      OFFSET 0 0 0
                    }
                  }
                }
                JOINT LThumb
                {
                  OFFSET 0 0 0
                  CHANNELS 6 Xposition Yposition Zposition Zrotation Xrotation Yrotation
                  End Site
                  {
                    OFFSET 0 0 0
                  }
                }
              }
            }
          }
        }
        JOINT RightShoulder
        {
          OFFSET 0 0 0
          CHANNELS 6 Xposition Yposition Zposition Zrotation Xrotation Yrotation
          JOINT RightArm
          {
            OFFSET -3.1366 1.37405 -0.404651
            CHANNELS 6 Xposition Yposition Zposition Zrotation Xrotation Yrotation
            JOINT RightForeArm
            {
              OFFSET -5.2419 -5.8808e-05 -0.000165864
              CHANNELS 6 Xposition Yposition Zposition Zrotation Xrotation Yrotation
              JOINT RightHand
              {
                OFFSET -3.44417 0 -2.00002e-05
                CHANNELS 6 Xposition Yposition Zposition Zrotation Xrotation Yrotation
                JOINT RightFingerBase
                {
                  OFFSET 0 0 0
                  CHANNELS 6 Xposition Yposition Zposition Zrotation Xrotation Yrotation
                  JOINT RightHandIndex1
                  {
                    OFFSET -0.62253 0 0
                    CHANNELS 6 Xposition Yposition Zposition Zrotation Xrotation Yrotation
                    End Site
                    {
                      OFFSET 0 0 0
                    }
                  }
                }
                JOINT RThumb
                {
                  OFFSET 0 0 0
                  CHANNELS 6 Xposition Yposition Zposition Zrotation Xrotation Yrotation
                  End Site
                  {
                    OFFSET 0 0 0
                  }
                }
              }
            }
          }
        }
      }
    }
  }
}
MOTION
Frames:	7
Frame Time:	0.00833333
0.691684 12.8368 -1.86774 3.89579 -17.3447 7.07695 0 0 0 -3.97569e-16 3.18055e-15 7.95139e-16 1.36306 -1.79463 6.37822e-08 -13.8274 -57.6751 1.97488 2.44809 -6.72614 -2.88661e-05 -69.889 62.4723 100.949 2.5622 -7.03959 -1.87459e-05 -15.3182 4.3149 2.57308 0.15764 -0.43311 2.32255 -1.59028e-15 1.19271e-15 3.18055e-15 0 0 0 -3.97569e-16 3.18055e-15 7.95139e-16 -1.30552 -1.79463 -9.59887e-09 -12.7049 -78.6769 -22.7926 -2.54244 -6.9856 0.000503903 126.279 59.9669 -131.195 -2.56826 -7.05622 4.51957e-05 13.6035 35.1379 -28.2504 -0.16473 -0.45259 2.36315 3.18055e-15 -3.18055e-15 -1.59028e-15 0 0 0 -3.97569e-16 3.18055e-15 7.95139e-16 0.02827 2.03559 4.47485e-07 -2.82244 37.0954 -8.44096 0.05672 2.04885 -0.04275 2.98177e-16 0 3.97569e-16 0 0 0 9.93923e-17 -3.18055e-15 -7.95139e-16 -0.05417 1.74624 0.17202 -1.5342 14.954 -5.3336 0.10407 1.76136 -0.12397 3.97569e-16 3.18055e-15 -7.95139e-16 0 0 0 9.93923e-17 -3.18055e-15 -7.95139e-16 3.36241 1.20089 -0.31121 -18.4003 -21.6616 -0.330897 4.983 0.000188411 0.000168558 -11.6622 -20.5938 -9.2319 3.48356 4.97784e-06 -1.0964e-05 7.25233 5.34502 30.7815 0 0 0 -6.36111e-15 0 -0 0.71526 3.55271e-15 8.88178e-16 1.59028e-15 -3.18055e-15 6.36111e-15 0 0 0 -6.36111e-15 0 -0 0 0 0 9.93923e-17 -3.18055e-15 -7.95139e-16 -3.1366 1.37405 -0.40465 22.0223 13.4548 5.36504 -5.24191 0.000244453 0.00010752 -2.57588 -6.23541 27.1298 -3.44417 6.42399e-06 -1.20969e-05 2.94198 -1.23944 -14.4047 0 0 0 -5.1684e-15 3.18055e-15 -3.18055e-15 -0.62253 1.77636e-15 0 -2.78299e-15 3.18055e-15 1.59028e-15 0 0 0 -5.1684e-15 3.18055e-15 -3.18055e-15 
0.691818 12.8373 -1.86757 3.90196 -17.3367 7.07473 0 0 0 -1.19271e-15 0 -0 1.36306 -1.79463 6.37822e-08 -13.8296 -57.6733 1.97633 2.44809 -6.72614 -2.88661e-05 -69.8618 62.4709 100.922 2.5622 -7.03959 -1.87459e-05 -15.3145 4.31625 2.57354 0.15764 -0.43311 2.32255 -8.74653e-15 2.38542e-15 -0 0 0 0 -1.19271e-15 0 -0 -1.30552 -1.79463 -9.59887e-09 -12.7287 -78.6701 -22.8121 -2.54244 -6.9856 0.000503903 126.257 59.9725 -131.169 -2.56826 -7.05622 4.51957e-05 13.5915 35.1372 -28.2445 -0.16473 -0.45259 2.36315 3.18055e-15 1.27222e-14 -1.59028e-15 0 0 0 -1.19271e-15 0 -0 0.02827 2.03559 4.47485e-07 -2.82912 37.0897 -8.43914 0.05672 2.04885 -0.04275 -5.96354e-16 3.18055e-15 -0 0 0 0 -3.97569e-16 3.18055e-15 -3.97569e-16 -0.05417 1.74624 0.17202 -1.53341 14.9539 -5.33569 0.10407 1.76136 -0.12397 7.95139e-16 -6.36111e-15 -0 0 0 0 -3.97569e-16 3.18055e-15 -3.97569e-16 3.36241 1.20089 -0.31121 -18.4027 -21.6605 -0.317345 4.983 0.000188411 0.000168558 -11.6645 -20.5969 -9.24275 3.48356 4.97784e-06 -1.0964e-05 7.25152 5.34864 30.7836 0 0 0 -1.76556e-31 -3.18055e-15 -3.18055e-15 0.71526 0 0 0 0 -6.36111e-15 0 0 0 -1.76556e-31 -3.18055e-15 -3.18055e-15 0 0 0 -3.97569e-16 3.18055e-15 -3.97569e-16 -3.1366 1.37405 -0.40465 22.0219 13.4511 5.3615 -5.24191 0.000244453 0.00010752 -2.57568 -6.24339 27.1313 -3.44417 6.42399e-06 -1.20969e-05 2.94743 -1.23646 -14.409 0 0 0 1.19271e-15 6.36111e-15 -1.59028e-15 -0.62253 3.55271e-15 0 2.38542e-15 9.54166e-15 -7.95139e-16 0 0 0 1.19271e-15 6.36111e-15 -1.59028e-15 
0.691953 12.8378 -1.8674 3.90813 -17.3287 7.07251 0 0 0 -7.95139e-16 -6.36111e-15 1.59028e-15 1.36306 -1.79463 6.37822e-08 -13.8317 -57.6716 1.97779 2.44809 -6.72614 -2.88661e-05 -69.8346 62.4695 100.896 2.5622 -7.03959 -1.87459e-05 -15.3107 4.3176 2.574 0.15764 -0.43311 2.32255 2.38542e-15 3.18055e-15 9.54166e-15 0 0 0 -7.95139e-16 -6.36111e-15 1.59028e-15 -1.30552 -1.79463 -9.59887e-09 -12.7526 -78.6634 -22.8317 -2.54244 -6.9856 0.000503903 126.234 59.9781 -131.143 -2.56826 -7.05622 4.51957e-05 13.5796 35.1364 -28.2386 -0.16473 -0.45259 2.36315 3.18055e-15 3.18055e-15 -1.59028e-15 0 0 0 -7.95139e-16 -6.36111e-15 1.59028e-15 0.02827 2.03559 4.47485e-07 -2.8358 37.084 -8.43731 0.05672 2.04885 -0.04275 1.19271e-15 0 1.59028e-15 0 0 0 6.95746e-16 3.18055e-15 7.95139e-16 -0.05417 1.74624 0.17202 -1.53263 14.9538 -5.33778 0.10407 1.76136 -0.12397 1.19271e-15 1.59028e-14 1.59028e-15 0 0 0 6.95746e-16 3.18055e-15 7.95139e-16 3.36241 1.20089 -0.31121 -18.405 -21.6593 -0.303793 4.983 0.000188411 0.000168558 -11.6668 -20.6 -9.2536 3.48356 4.97784e-06 -1.0964e-05 7.25072 5.35226 30.7857 0 0 0 -1.59028e-15 3.18055e-15 -0 0.71526 0 -8.88178e-16 1.59028e-15 6.36111e-15 -3.18055e-15 0 0 0 -1.59028e-15 3.18055e-15 -0 0 0 0 6.95746e-16 3.18055e-15 7.95139e-16 -3.1366 1.37405 -0.40465 22.0215 13.4473 5.35796 -5.24191 0.000244453 0.00010752 -2.57549 -6.25138 27.1327 -3.44417 6.42399e-06 -1.20969e-05 2.95288 -1.23349 -14.4133 0 0 0 -2.38542e-15 3.18055e-15 2.38542e-15 -0.62253 -1.77636e-15 0 -1.19271e-15 0 -0 0 0 0 -2.38542e-15 3.18055e-15 2.38542e-15 
0.692014 12.838 -1.86732 3.91093 -17.3251 7.0715 0 0 0 3.97252e-31 -9.54166e-15 2.38542e-15 1.36306 -1.79463 6.37822e-08 -13.8327 -57.6708 1.97845 2.44809 -6.72614 -2.88661e-05 -69.8222 62.4688 100.883 2.5622 -7.03959 -1.87459e-05 -15.309 4.31821 2.57421 0.15764 -0.43311 2.32255 -1.19271e-15 -3.97569e-15 -3.18055e-15 0 0 0 3.97252e-31 -9.54166e-15 2.38542e-15 -1.30552 -1.79463 -9.59887e-09 -12.7634 -78.6603 -22.8406 -2.54244 -6.9856 0.000503903 126.224 59.9806 -131.131 -2.56826 -7.05622 4.51957e-05 13.5741 35.1361 -28.236 -0.16473 -0.45259 2.36315 3.18055e-15 -3.18055e-15 1.59028e-15 0 0 0 3.97252e-31 -9.54166e-15 2.38542e-15 0.02827 2.03559 4.47485e-07 -2.83883 37.0814 -8.43648 0.05672 2.04885 -0.04275 -1.98785e-16 0 -1.19271e-15 0 0 0 -5.96354e-16 0 -3.97569e-16 -0.05417 1.74624 0.17202 -1.53228 14.9537 -5.33873 0.10407 1.76136 -0.12397 1.59028e-15 -6.36111e-15 1.59028e-15 0 0 0 -5.96354e-16 0 -3.97569e-16 3.36241 1.20089 -0.31121 -18.406 -21.6588 -0.297633 4.983 0.000188411 0.000168558 -11.6679 -20.6015 -9.25853 3.48356 4.97784e-06 -1.0964e-05 7.25035 5.3539 30.7867 0 0 0 -4.77083e-15 -3.18055e-15 -0 0.71526 -3.55271e-15 1.77636e-15 -7.95139e-15 -3.18055e-15 3.18055e-15 0 0 0 -4.77083e-15 -3.18055e-15 -0 0 0 0 -5.96354e-16 0 -3.97569e-16 -3.1366 1.37405 -0.40465 22.0213 13.4456 5.35635 -5.24191 0.000244453 0.00010752 -2.5754 -6.25501 27.1334 -3.44417 6.42399e-06 -1.20969e-05 2.95536 -1.23213 -14.4152 0 0 0 2.38542e-15 3.18055e-15 -4.77083e-15 -0.62253 -1.77636e-15 0 1.19271e-15 0 7.95139e-16 0 0 0 2.38542e-15 3.18055e-15 -4.77083e-15 
0.692014 12.838 -1.86732 3.91093 -17.3251 7.0715 0 0 0 3.97252e-31 -9.54166e-15 2.38542e-15 1.36306 -1.79463 6.37822e-08 -13.8327 -57.6708 1.97845 2.44809 -6.72614 -2.88661e-05 -69.8222 62.4688 100.883 2.5622 -7.03959 -1.87459e-05 -15.309 4.31821 2.57421 0.15764 -0.43311 2.32255 -1.19271e-15 -3.97569e-15 -3.18055e-15 0 0 0 3.97252e-31 -9.54166e-15 2.38542e-15 -1.30552 -1.79463 -9.59887e-09 -12.7634 -78.6603 -22.8406 -2.54244 -6.9856 0.000503903 126.224 59.9806 -131.131 -2.56826 -7.05622 4.51957e-05 13.5741 35.1361 -28.236 -0.16473 -0.45259 2.36315 3.18055e-15 -3.18055e-15 1.59028e-15 0 0 0 3.97252e-31 -9.54166e-15 2.38542e-15 0.02827 2.03559 4.47485e-07 -2.83883 37.0814 -8.43648 0.05672 2.04885 -0.04275 -1.98785e-16 0 -1.19271e-15 0 0 0 -5.96354e-16 0 -3.97569e-16 -0.05417 1.74624 0.17202 -1.53228 14.9537 -5.33873 0.10407 1.76136 -0.12397 1.59028e-15 -6.36111e-15 1.59028e-15 0 0 0 -5.96354e-16 0 -3.97569e-16 3.36241 1.20089 -0.31121 -18.406 -21.6588 -0.297633 4.983 0.000188411 0.000168558 -11.6679 -20.6015 -9.25853 3.48356 4.97784e-06 -1.0964e-05 7.25035 5.3539 30.7867 0 0 0 -4.77083e-15 -3.18055e-15 -0 0.71526 -3.55271e-15 1.77636e-15 -7.95139e-15 -3.18055e-15 3.18055e-15 0 0 0 -4.77083e-15 -3.18055e-15 -0 0 0 0 -5.96354e-16 0 -3.97569e-16 -3.1366 1.37405 -0.40465 22.0213 13.4456 5.35635 -5.24191 0.000244453 0.00010752 -2.5754 -6.25501 27.1334 -3.44417 6.42399e-06 -1.20969e-05 2.95536 -1.23213 -14.4152 0 0 0 2.38542e-15 3.18055e-15 -4.77083e-15 -0.62253 -1.77636e-15 0 1.19271e-15 0 7.95139e-16 0 0 0 2.38542e-15 3.18055e-15 -4.77083e-15 
0.692014 12.838 -1.86732 3.91093 -17.3251 7.0715 0 0 0 3.97252e-31 -9.54166e-15 2.38542e-15 1.36306 -1.79463 6.37822e-08 -13.8327 -57.6708 1.97845 2.44809 -6.72614 -2.88661e-05 -69.8222 62.4688 100.883 2.5622 -7.03959 -1.87459e-05 -15.309 4.31821 2.57421 0.15764 -0.43311 2.32255 -1.19271e-15 -3.97569e-15 -3.18055e-15 0 0 0 3.97252e-31 -9.54166e-15 2.38542e-15 -1.30552 -1.79463 -9.59887e-09 -12.7634 -78.6603 -22.8406 -2.54244 -6.9856 0.000503903 126.224 59.9806 -131.131 -2.56826 -7.05622 4.51957e-05 13.5741 35.1361 -28.236 -0.16473 -0.45259 2.36315 3.18055e-15 -3.18055e-15 1.59028e-15 0 0 0 3.97252e-31 -9.54166e-15 2.38542e-15 0.02827 2.03559 4.47485e-07 -2.83883 37.0814 -8.43648 0.05672 2.04885 -0.04275 -1.98785e-16 0 -1.19271e-15 0 0 0 -5.96354e-16 0 -3.97569e-16 -0.05417 1.74624 0.17202 -1.53228 14.9537 -5.33873 0.10407 1.76136 -0.12397 1.59028e-15 -6.36111e-15 1.59028e-15 0 0 0 -5.96354e-16 0 -3.97569e-16 3.36241 1.20089 -0.31121 -18.406 -21.6588 -0.297633 4.983 0.000188411 0.000168558 -11.6679 -20.6015 -9.25853 3.48356 4.97784e-06 -1.0964e-05 7.25035 5.3539 30.7867 0 0 0 -4.77083e-15 -3.18055e-15 -0 0.71526 -3.55271e-15 1.77636e-15 -7.95139e-15 -3.18055e-15 3.18055e-15 0 0 0 -4.77083e-15 -3.18055e-15 -0 0 0 0 -5.96354e-16 0 -3.97569e-16 -3.1366 1.37405 -0.40465 22.0213 13.4456 5.35635 -5.24191 0.000244453 0.00010752 -2.5754 -6.25501 27.1334 -3.44417 6.42399e-06 -1.20969e-05 2.95536 -1.23213 -14.4152 0 0 0 2.38542e-15 3.18055e-15 -4.77083e-15 -0.62253 -1.77636e-15 0 1.19271e-15 0 7.95139e-16 0 0 0 2.38542e-15 3.18055e-15 -4.77083e-15 
0.692014 12.838 -1.86732 3.91093 -17.3251 7.0715 0 0 0 3.97252e-31 -9.54166e-15 2.38542e-15 1.36306 -1.79463 6.37822e-08 -13.8327 -57.6708 1.97845 2.44809 -6.72614 -2.88661e-05 -69.8222 62.4688 100.883 2.5622 -7.03959 -1.87459e-05 -15.309 4.31821 2.57421 0.15764 -0.43311 2.32255 -1.19271e-15 -3.97569e-15 -3.18055e-15 0 0 0 3.97252e-31 -9.54166e-15 2.38542e-15 -1.30552 -1.79463 -9.59887e-09 -12.7634 -78.6603 -22.8406 -2.54244 -6.9856 0.000503903 126.224 59.9806 -131.131 -2.56826 -7.05622 4.51957e-05 13.5741 35.1361 -28.236 -0.16473 -0.45259 2.36315 3.18055e-15 -3.18055e-15 1.59028e-15 0 0 0 3.97252e-31 -9.54166e-15 2.38542e-15 0.02827 2.03559 4.47485e-07 -2.83883 37.0814 -8.43648 0.05672 2.04885 -0.04275 -1.98785e-16 0 -1.19271e-15 0 0 0 -5.96354e-16 0 -3.97569e-16 -0.05417 1.74624 0.17202 -1.53228 14.9537 -5.33873 0.10407 1.76136 -0.12397 1.59028e-15 -6.36111e-15 1.59028e-15 0 0 0 -5.96354e-16 0 -3.97569e-16 3.36241 1.20089 -0.31121 -18.406 -21.6588 -0.297633 4.983 0.000188411 0.000168558 -11.6679 -20.6015 -9.25853 3.48356 4.97784e-06 -1.0964e-05 7.25035 5.3539 30.7867 0 0 0 -4.77083e-15 -3.18055e-15 -0 0.71526 -3.55271e-15 1.77636e-15 -7.95139e-15 -3.18055e-15 3.18055e-15 0 0 0 -4.77083e-15 -3.18055e-15 -0 0 0 0 -5.96354e-16 0 -3.97569e-16 -3.1366 1.37405 -0.40465 22.0213 13.4456 5.35635 -5.24191 0.000244453 0.00010752 -2.5754 -6.25501 27.1334 -3.44417 6.42399e-06 -1.20969e-05 2.95536 -1.23213 -14.4152 0 0 0 2.38542e-15 3.18055e-15 -4.77083e-15 -0.62253 -1.77636e-15 0 1.19271e-15 0 7.95139e-16 0 0 0 2.38542e-15 3.18055e-15 -4.77083e-15 
